<svg xmlns="http://www.w3.org/2000/svg" xmlns:xlink="http://www.w3.org/1999/xlink" width="1366" zoomAndPan="magnify" viewBox="0 0 1024.5 329.999987" height="440" preserveAspectRatio="xMidYMid meet" version="1.0"><defs><g/><clipPath id="a380158c44"><path d="M 11 100.75 L 130.054688 100.75 L 130.054688 220.203125 L 11 220.203125 Z M 11 100.75 " clip-rule="nonzero"/></clipPath><clipPath id="01c05970ed"><path d="M 138.992188 46.625 L 161.03125 46.625 L 161.03125 68.273438 L 138.992188 68.273438 Z M 138.992188 46.625 " clip-rule="nonzero"/></clipPath><clipPath id="75aa2f9cc9"><path d="M 61.355469 23 L 130.035156 23 L 130.035156 91.605469 L 61.355469 91.605469 Z M 61.355469 23 " clip-rule="nonzero"/></clipPath><clipPath id="ae89b1c87e"><path d="M 140.128906 78.597656 L 185.933594 78.597656 L 185.933594 125.828125 L 140.128906 125.828125 Z M 140.128906 78.597656 " clip-rule="nonzero"/></clipPath></defs><g fill="#ffffff" fill-opacity="1"><g transform="translate(139.134835, 258.199416)"><g><path d="M 61.828125 35.0625 L 61.828125 -1.03125 L 78.40625 -1.03125 L 78.40625 35.0625 Z M 70.125 2.25 C 60.5625 2.25 51.921875 0.609375 44.203125 -2.671875 C 36.492188 -5.953125 29.90625 -10.472656 24.4375 -16.234375 C 18.96875 -21.992188 14.734375 -28.671875 11.734375 -36.265625 C 8.742188 -43.867188 7.25 -51.988281 7.25 -60.625 C 7.25 -69.144531 8.742188 -77.203125 11.734375 -84.796875 C 14.734375 -92.398438 18.96875 -99.078125 24.4375 -104.828125 C 29.90625 -110.585938 36.492188 -115.078125 44.203125 -118.296875 C 51.921875 -121.523438 60.5625 -123.140625 70.125 -123.140625 C 79.675781 -123.140625 88.304688 -121.523438 96.015625 -118.296875 C 103.734375 -115.078125 110.328125 -110.585938 115.796875 -104.828125 C 121.265625 -99.078125 125.492188 -92.398438 128.484375 -84.796875 C 131.484375 -77.203125 132.984375 -69.085938 132.984375 -60.453125 C 132.984375 -51.929688 131.484375 -43.867188 128.484375 -36.265625 C 125.492188 -28.671875 121.265625 -21.992188 115.796875 -16.234375 C 110.328125 -10.472656 103.734375 -5.953125 96.015625 -2.671875 C 88.304688 0.609375 79.675781 2.25 70.125 2.25 Z M 70.125 -12.4375 C 76.6875 -12.4375 82.785156 -13.644531 88.421875 -16.0625 C 94.066406 -18.476562 98.988281 -21.875 103.1875 -26.25 C 107.394531 -30.625 110.648438 -35.71875 112.953125 -41.53125 C 115.253906 -47.34375 116.40625 -53.707031 116.40625 -60.625 C 116.40625 -67.414062 115.253906 -73.742188 112.953125 -79.609375 C 110.648438 -85.484375 107.425781 -90.578125 103.28125 -94.890625 C 99.132812 -99.210938 94.210938 -102.550781 88.515625 -104.90625 C 82.816406 -107.269531 76.6875 -108.453125 70.125 -108.453125 C 63.4375 -108.453125 57.269531 -107.269531 51.625 -104.90625 C 45.988281 -102.550781 41.097656 -99.210938 36.953125 -94.890625 C 32.804688 -90.578125 29.582031 -85.484375 27.28125 -79.609375 C 24.976562 -73.742188 23.828125 -67.359375 23.828125 -60.453125 C 23.828125 -53.648438 24.976562 -47.34375 27.28125 -41.53125 C 29.582031 -35.71875 32.804688 -30.625 36.953125 -26.25 C 41.097656 -21.875 45.988281 -18.476562 51.625 -16.0625 C 57.269531 -13.644531 63.4375 -12.4375 70.125 -12.4375 Z M 70.125 -12.4375 "/></g></g></g><g fill="#ffffff" fill-opacity="1"><g transform="translate(282.093529, 258.199416)"><g><path d="M 49.21875 2.078125 C 40.695312 2.078125 33.328125 0.0351562 27.109375 -4.046875 C 20.890625 -8.140625 16.109375 -13.695312 12.765625 -20.71875 C 9.429688 -27.75 7.765625 -35.523438 7.765625 -44.046875 C 7.765625 -52.671875 9.609375 -60.46875 13.296875 -67.4375 C 16.984375 -74.40625 22.28125 -79.929688 29.1875 -84.015625 C 36.09375 -88.109375 44.382812 -90.15625 54.0625 -90.15625 C 63.382812 -90.15625 71.382812 -88.140625 78.0625 -84.109375 C 84.738281 -80.078125 89.890625 -74.609375 93.515625 -67.703125 C 97.140625 -60.796875 98.953125 -53.082031 98.953125 -44.5625 L 98.953125 0 L 82.890625 0 L 82.890625 -17.96875 L 82.546875 -17.96875 C 80.828125 -14.625 78.5 -11.425781 75.5625 -8.375 C 72.625 -5.320312 68.96875 -2.816406 64.59375 -0.859375 C 60.21875 1.097656 55.09375 2.078125 49.21875 2.078125 Z M 53.359375 -11.578125 C 59.117188 -11.578125 64.210938 -12.984375 68.640625 -15.796875 C 73.078125 -18.617188 76.53125 -22.535156 79 -27.546875 C 81.476562 -32.554688 82.71875 -38.171875 82.71875 -44.390625 C 82.71875 -50.484375 81.535156 -55.945312 79.171875 -60.78125 C 76.816406 -65.625 73.453125 -69.453125 69.078125 -72.265625 C 64.703125 -75.085938 59.578125 -76.5 53.703125 -76.5 C 47.492188 -76.5 42.171875 -75.0625 37.734375 -72.1875 C 33.304688 -69.3125 29.910156 -65.425781 27.546875 -60.53125 C 25.179688 -55.632812 24 -50.078125 24 -43.859375 C 24 -37.878906 25.148438 -32.441406 27.453125 -27.546875 C 29.753906 -22.648438 33.09375 -18.765625 37.46875 -15.890625 C 41.851562 -13.015625 47.148438 -11.578125 53.359375 -11.578125 Z M 53.359375 -11.578125 "/></g></g></g><g fill="#ffffff" fill-opacity="1"><g transform="translate(396.391599, 258.199416)"><g><path d="M 45.9375 35.0625 L 45.9375 1.375 C 39.488281 0.457031 33.757812 -1.695312 28.75 -5.09375 C 23.75 -8.488281 19.804688 -12.921875 16.921875 -18.390625 C 14.046875 -23.859375 12.609375 -30.101562 12.609375 -37.125 L 12.609375 -88.078125 L 28.671875 -88.078125 L 28.671875 -37.296875 C 28.671875 -32.003906 29.820312 -27.425781 32.125 -23.5625 C 34.425781 -19.707031 37.503906 -16.742188 41.359375 -14.671875 C 45.210938 -12.609375 49.328125 -11.578125 53.703125 -11.578125 C 58.203125 -11.578125 62.378906 -12.609375 66.234375 -14.671875 C 70.085938 -16.742188 73.191406 -19.707031 75.546875 -23.5625 C 77.910156 -27.425781 79.09375 -32.003906 79.09375 -37.296875 L 79.09375 -88.078125 L 94.984375 -88.078125 L 94.984375 -37.125 C 94.984375 -30.101562 93.570312 -23.882812 90.75 -18.46875 C 87.9375 -13.0625 84.023438 -8.660156 79.015625 -5.265625 C 74.003906 -1.867188 68.273438 0.34375 61.828125 1.375 L 61.828125 35.0625 Z M 45.9375 35.0625 "/></g></g></g><g fill="#ffffff" fill-opacity="1"><g transform="translate(506.718626, 258.199416)"><g><path d="M 12.609375 0 L 12.609375 -53.015625 C 12.609375 -59.804688 14.160156 -66.023438 17.265625 -71.671875 C 20.378906 -77.316406 24.867188 -81.804688 30.734375 -85.140625 C 36.609375 -88.484375 43.691406 -90.15625 51.984375 -90.15625 C 56.015625 -90.15625 60.046875 -89.609375 64.078125 -88.515625 C 68.109375 -87.421875 71.847656 -85.578125 75.296875 -82.984375 C 78.753906 -80.390625 81.519531 -76.90625 83.59375 -72.53125 L 83.765625 -72.53125 C 86.066406 -76.90625 88.941406 -80.390625 92.390625 -82.984375 C 95.847656 -85.578125 99.59375 -87.421875 103.625 -88.515625 C 107.65625 -89.609375 111.742188 -90.15625 115.890625 -90.15625 C 124.054688 -90.15625 131.078125 -88.484375 136.953125 -85.140625 C 142.828125 -81.804688 147.316406 -77.316406 150.421875 -71.671875 C 153.535156 -66.023438 155.09375 -59.804688 155.09375 -53.015625 L 155.09375 0 L 139.203125 0 L 139.203125 -53.015625 C 139.203125 -57.390625 138.164062 -61.363281 136.09375 -64.9375 C 134.019531 -68.507812 131.226562 -71.328125 127.71875 -73.390625 C 124.207031 -75.460938 120.207031 -76.5 115.71875 -76.5 C 111.332031 -76.5 107.296875 -75.4375 103.609375 -73.3125 C 99.929688 -71.1875 97.023438 -68.363281 94.890625 -64.84375 C 92.765625 -61.332031 91.703125 -57.390625 91.703125 -53.015625 L 91.703125 0 L 75.8125 0 L 75.8125 -53.015625 C 75.8125 -57.390625 74.742188 -61.332031 72.609375 -64.84375 C 70.484375 -68.363281 67.609375 -71.1875 63.984375 -73.3125 C 60.359375 -75.4375 56.300781 -76.5 51.8125 -76.5 C 47.4375 -76.5 43.492188 -75.460938 39.984375 -73.390625 C 36.472656 -71.328125 33.679688 -68.507812 31.609375 -64.9375 C 29.535156 -61.363281 28.5 -57.390625 28.5 -53.015625 L 28.5 0 Z M 12.609375 0 "/></g></g></g><g fill="#ffffff" fill-opacity="1"><g transform="translate(677.129371, 258.199416)"><g><path d="M 49.21875 2.078125 C 40.695312 2.078125 33.328125 0.0351562 27.109375 -4.046875 C 20.890625 -8.140625 16.109375 -13.695312 12.765625 -20.71875 C 9.429688 -27.75 7.765625 -35.523438 7.765625 -44.046875 C 7.765625 -52.671875 9.609375 -60.46875 13.296875 -67.4375 C 16.984375 -74.40625 22.28125 -79.929688 29.1875 -84.015625 C 36.09375 -88.109375 44.382812 -90.15625 54.0625 -90.15625 C 63.382812 -90.15625 71.382812 -88.140625 78.0625 -84.109375 C 84.738281 -80.078125 89.890625 -74.609375 93.515625 -67.703125 C 97.140625 -60.796875 98.953125 -53.082031 98.953125 -44.5625 L 98.953125 0 L 82.890625 0 L 82.890625 -17.96875 L 82.546875 -17.96875 C 80.828125 -14.625 78.5 -11.425781 75.5625 -8.375 C 72.625 -5.320312 68.96875 -2.816406 64.59375 -0.859375 C 60.21875 1.097656 55.09375 2.078125 49.21875 2.078125 Z M 53.359375 -11.578125 C 59.117188 -11.578125 64.210938 -12.984375 68.640625 -15.796875 C 73.078125 -18.617188 76.53125 -22.535156 79 -27.546875 C 81.476562 -32.554688 82.71875 -38.171875 82.71875 -44.390625 C 82.71875 -50.484375 81.535156 -55.945312 79.171875 -60.78125 C 76.816406 -65.625 73.453125 -69.453125 69.078125 -72.265625 C 64.703125 -75.085938 59.578125 -76.5 53.703125 -76.5 C 47.492188 -76.5 42.171875 -75.0625 37.734375 -72.1875 C 33.304688 -69.3125 29.910156 -65.425781 27.546875 -60.53125 C 25.179688 -55.632812 24 -50.078125 24 -43.859375 C 24 -37.878906 25.148438 -32.441406 27.453125 -27.546875 C 29.753906 -22.648438 33.09375 -18.765625 37.46875 -15.890625 C 41.851562 -13.015625 47.148438 -11.578125 53.359375 -11.578125 Z M 53.359375 -11.578125 "/></g></g></g><g clip-path="url(#a380158c44)"><path fill="#12eb63" d="M 70.28125 220.203125 L 11.234375 220.203125 L 11.234375 159.796875 C 11.234375 127.1875 37.671875 100.75 70.28125 100.75 L 130.007812 100.75 L 130.007812 160.476562 C 130.007812 193.460938 103.269531 220.203125 70.28125 220.203125 Z M 70.28125 220.203125 " fill-opacity="1" fill-rule="nonzero"/></g><g clip-path="url(#01c05970ed)"><path fill="#ffffff" d="M 149.800781 68.664062 L 138.710938 68.664062 L 138.710938 57.320312 C 138.710938 51.195312 143.675781 46.230469 149.800781 46.230469 L 161.015625 46.230469 L 161.015625 57.449219 C 161.015625 63.644531 155.996094 68.664062 149.800781 68.664062 Z M 149.800781 68.664062 " fill-opacity="1" fill-rule="nonzero"/></g><g clip-path="url(#75aa2f9cc9)"><path fill="#3df883" d="M 61.355469 57.242188 L 61.355469 23.292969 L 96.085938 23.292969 C 114.835938 23.292969 130.035156 38.492188 130.035156 57.242188 L 130.035156 91.582031 L 95.695312 91.582031 C 76.730469 91.582031 61.355469 76.207031 61.355469 57.242188 Z M 61.355469 57.242188 " fill-opacity="1" fill-rule="nonzero"/></g><g clip-path="url(#ae89b1c87e)"><path fill="#3df883" d="M 138.703125 101.484375 L 138.703125 77.433594 L 163.308594 77.433594 C 176.589844 77.433594 187.359375 88.203125 187.359375 101.484375 L 187.359375 125.8125 L 163.03125 125.8125 C 149.59375 125.8125 138.703125 114.921875 138.703125 101.484375 Z M 138.703125 101.484375 " fill-opacity="1" fill-rule="nonzero"/></g><g fill="#ffffff" fill-opacity="1"><g transform="translate(793.508988, 259.250395)"><g><path d="M 37.984375 0 L 10.859375 0 L 10.859375 -123 L 37.984375 -123 Z M 37.984375 0 "/></g></g></g><g fill="#ffffff" fill-opacity="1"><g transform="translate(845.230738, 259.250395)"><g><path d="M 77.78125 -47.03125 L 62.21875 -90.8125 L 46.671875 -47.03125 Z M 123.734375 0 L 94.609375 0 L 85.734375 -24.78125 L 38.890625 -24.78125 L 30.03125 0 L 0.90625 0 L 50.828125 -123 L 73.796875 -123 Z M 123.734375 0 "/></g></g></g></svg>