<svg xmlns="http://www.w3.org/2000/svg" xmlns:xlink="http://www.w3.org/1999/xlink" width="1366" zoomAndPan="magnify" viewBox="0 0 1024.5 329.999987" height="440" preserveAspectRatio="xMidYMid meet" version="1.0"><defs><g/><clipPath id="18c64e7461"><path d="M 17.296875 95.195312 L 140.277344 95.195312 L 140.277344 219.507812 L 17.296875 219.507812 Z M 17.296875 95.195312 " clip-rule="nonzero"/></clipPath><clipPath id="1e5404ebe3"><path d="M 149.574219 38.894531 L 172.5 38.894531 L 172.5 61.398438 L 149.574219 61.398438 Z M 149.574219 38.894531 " clip-rule="nonzero"/></clipPath><clipPath id="43480f7924"><path d="M 69.394531 14.835938 L 139.644531 14.835938 L 139.644531 85.707031 L 69.394531 85.707031 Z M 69.394531 14.835938 " clip-rule="nonzero"/></clipPath><clipPath id="cbca7e26bc"><path d="M 149.875 71.277344 L 199.28125 71.277344 L 199.28125 121.304688 L 149.875 121.304688 Z M 149.875 71.277344 " clip-rule="nonzero"/></clipPath></defs><g fill="#3870d0" fill-opacity="1"><g transform="translate(149.706353, 259.026225)"><g><path d="M 64.328125 36.484375 L 64.328125 -1.078125 L 81.578125 -1.078125 L 81.578125 36.484375 Z M 72.953125 2.34375 C 63.015625 2.34375 54.03125 0.632812 46 -2.78125 C 37.976562 -6.195312 31.117188 -10.898438 25.421875 -16.890625 C 19.734375 -22.878906 15.332031 -29.828125 12.21875 -37.734375 C 9.101562 -45.640625 7.546875 -54.085938 7.546875 -63.078125 C 7.546875 -71.941406 9.101562 -80.328125 12.21875 -88.234375 C 15.332031 -96.140625 19.734375 -103.085938 25.421875 -109.078125 C 31.117188 -115.066406 37.976562 -119.738281 46 -123.09375 C 54.03125 -126.445312 63.015625 -128.125 72.953125 -128.125 C 82.898438 -128.125 91.882812 -126.445312 99.90625 -123.09375 C 107.9375 -119.738281 114.796875 -115.066406 120.484375 -109.078125 C 126.179688 -103.085938 130.585938 -96.140625 133.703125 -88.234375 C 136.816406 -80.328125 138.375 -71.878906 138.375 -62.890625 C 138.375 -54.023438 136.816406 -45.640625 133.703125 -37.734375 C 130.585938 -29.828125 126.179688 -22.878906 120.484375 -16.890625 C 114.796875 -10.898438 107.9375 -6.195312 99.90625 -2.78125 C 91.882812 0.632812 82.898438 2.34375 72.953125 2.34375 Z M 72.953125 -12.9375 C 79.785156 -12.9375 86.132812 -14.191406 92 -16.703125 C 97.875 -19.222656 103 -22.757812 107.375 -27.3125 C 111.75 -31.863281 115.132812 -37.164062 117.53125 -43.21875 C 119.925781 -49.269531 121.125 -55.890625 121.125 -63.078125 C 121.125 -70.140625 119.925781 -76.726562 117.53125 -82.84375 C 115.132812 -88.957031 111.78125 -94.257812 107.46875 -98.75 C 103.15625 -103.238281 98.03125 -106.710938 92.09375 -109.171875 C 86.164062 -111.628906 79.785156 -112.859375 72.953125 -112.859375 C 66.003906 -112.859375 59.59375 -111.628906 53.71875 -109.171875 C 47.851562 -106.710938 42.765625 -103.238281 38.453125 -98.75 C 34.140625 -94.257812 30.785156 -88.957031 28.390625 -82.84375 C 25.992188 -76.726562 24.796875 -70.078125 24.796875 -62.890625 C 24.796875 -55.828125 25.992188 -49.269531 28.390625 -43.21875 C 30.785156 -37.164062 34.140625 -31.863281 38.453125 -27.3125 C 42.765625 -22.757812 47.851562 -19.222656 53.71875 -16.703125 C 59.59375 -14.191406 66.003906 -12.9375 72.953125 -12.9375 Z M 72.953125 -12.9375 "/></g></g></g><g fill="#3870d0" fill-opacity="1"><g transform="translate(298.457756, 259.026225)"><g><path d="M 51.21875 2.15625 C 42.351562 2.15625 34.6875 0.03125 28.21875 -4.21875 C 21.75 -8.476562 16.773438 -14.257812 13.296875 -21.5625 C 9.828125 -28.875 8.09375 -36.960938 8.09375 -45.828125 C 8.09375 -54.804688 10.007812 -62.921875 13.84375 -70.171875 C 17.675781 -77.421875 23.1875 -83.171875 30.375 -87.421875 C 37.5625 -91.679688 46.1875 -93.8125 56.25 -93.8125 C 65.945312 -93.8125 74.269531 -91.710938 81.21875 -87.515625 C 88.175781 -83.316406 93.539062 -77.625 97.3125 -70.4375 C 101.082031 -63.25 102.96875 -55.222656 102.96875 -46.359375 L 102.96875 0 L 86.25 0 L 86.25 -18.6875 L 85.890625 -18.6875 C 84.097656 -15.21875 81.671875 -11.894531 78.609375 -8.71875 C 75.554688 -5.539062 71.753906 -2.929688 67.203125 -0.890625 C 62.648438 1.140625 57.320312 2.15625 51.21875 2.15625 Z M 55.53125 -12.046875 C 61.519531 -12.046875 66.816406 -13.507812 71.421875 -16.4375 C 76.035156 -19.375 79.628906 -23.445312 82.203125 -28.65625 C 84.785156 -33.875 86.078125 -39.71875 86.078125 -46.1875 C 86.078125 -52.53125 84.847656 -58.21875 82.390625 -63.25 C 79.929688 -68.28125 76.425781 -72.265625 71.875 -75.203125 C 67.320312 -78.140625 61.992188 -79.609375 55.890625 -79.609375 C 49.421875 -79.609375 43.878906 -78.109375 39.265625 -75.109375 C 34.648438 -72.117188 31.113281 -68.078125 28.65625 -62.984375 C 26.207031 -57.890625 24.984375 -52.109375 24.984375 -45.640625 C 24.984375 -39.410156 26.179688 -33.75 28.578125 -28.65625 C 30.972656 -23.570312 34.445312 -19.53125 39 -16.53125 C 43.550781 -13.539062 49.0625 -12.046875 55.53125 -12.046875 Z M 55.53125 -12.046875 "/></g></g></g><g fill="#3870d0" fill-opacity="1"><g transform="translate(417.387203, 259.026225)"><g><path d="M 47.796875 36.484375 L 47.796875 1.4375 C 41.085938 0.476562 35.128906 -1.765625 29.921875 -5.296875 C 24.710938 -8.835938 20.609375 -13.453125 17.609375 -19.140625 C 14.617188 -24.828125 13.125 -31.328125 13.125 -38.640625 L 13.125 -91.65625 L 29.828125 -91.65625 L 29.828125 -38.8125 C 29.828125 -33.300781 31.023438 -28.539062 33.421875 -24.53125 C 35.816406 -20.519531 39.019531 -17.4375 43.03125 -15.28125 C 47.050781 -13.125 51.335938 -12.046875 55.890625 -12.046875 C 60.554688 -12.046875 64.894531 -13.125 68.90625 -15.28125 C 72.925781 -17.4375 76.160156 -20.519531 78.609375 -24.53125 C 81.066406 -28.539062 82.296875 -33.300781 82.296875 -38.8125 L 82.296875 -91.65625 L 98.84375 -91.65625 L 98.84375 -38.640625 C 98.84375 -31.328125 97.375 -24.851562 94.4375 -19.21875 C 91.5 -13.59375 87.421875 -9.015625 82.203125 -5.484375 C 76.992188 -1.953125 71.035156 0.351562 64.328125 1.4375 L 64.328125 36.484375 Z M 47.796875 36.484375 "/></g></g></g><g fill="#3870d0" fill-opacity="1"><g transform="translate(532.1847, 259.026225)"><g><path d="M 13.125 0 L 13.125 -55.171875 C 13.125 -62.234375 14.738281 -68.695312 17.96875 -74.5625 C 21.207031 -80.4375 25.878906 -85.113281 31.984375 -88.59375 C 38.097656 -92.070312 45.46875 -93.8125 54.09375 -93.8125 C 58.28125 -93.8125 62.46875 -93.238281 66.65625 -92.09375 C 70.851562 -90.957031 74.75 -89.039062 78.34375 -86.34375 C 81.9375 -83.644531 84.8125 -80.019531 86.96875 -75.46875 L 87.15625 -75.46875 C 89.550781 -80.019531 92.546875 -83.644531 96.140625 -86.34375 C 99.734375 -89.039062 103.625 -90.957031 107.8125 -92.09375 C 112.007812 -93.238281 116.265625 -93.8125 120.578125 -93.8125 C 129.085938 -93.8125 136.394531 -92.070312 142.5 -88.59375 C 148.613281 -85.113281 153.285156 -80.4375 156.515625 -74.5625 C 159.753906 -68.695312 161.375 -62.234375 161.375 -55.171875 L 161.375 0 L 144.84375 0 L 144.84375 -55.171875 C 144.84375 -59.722656 143.765625 -63.851562 141.609375 -67.5625 C 139.453125 -71.28125 136.546875 -74.21875 132.890625 -76.375 C 129.234375 -78.53125 125.070312 -79.609375 120.40625 -79.609375 C 115.851562 -79.609375 111.660156 -78.5 107.828125 -76.28125 C 103.992188 -74.0625 100.96875 -71.125 98.75 -67.46875 C 96.53125 -63.820312 95.421875 -59.722656 95.421875 -55.171875 L 95.421875 0 L 78.890625 0 L 78.890625 -55.171875 C 78.890625 -59.722656 77.78125 -63.820312 75.5625 -67.46875 C 73.34375 -71.125 70.347656 -74.0625 66.578125 -76.28125 C 62.804688 -78.5 58.582031 -79.609375 53.90625 -79.609375 C 49.351562 -79.609375 45.25 -78.53125 41.59375 -76.375 C 37.945312 -74.21875 35.046875 -71.28125 32.890625 -67.5625 C 30.734375 -63.851562 29.65625 -59.722656 29.65625 -55.171875 L 29.65625 0 Z M 13.125 0 "/></g></g></g><g fill="#3870d0" fill-opacity="1"><g transform="translate(709.500516, 259.026225)"><g><path d="M 51.21875 2.15625 C 42.351562 2.15625 34.6875 0.03125 28.21875 -4.21875 C 21.75 -8.476562 16.773438 -14.257812 13.296875 -21.5625 C 9.828125 -28.875 8.09375 -36.960938 8.09375 -45.828125 C 8.09375 -54.804688 10.007812 -62.921875 13.84375 -70.171875 C 17.675781 -77.421875 23.1875 -83.171875 30.375 -87.421875 C 37.5625 -91.679688 46.1875 -93.8125 56.25 -93.8125 C 65.945312 -93.8125 74.269531 -91.710938 81.21875 -87.515625 C 88.175781 -83.316406 93.539062 -77.625 97.3125 -70.4375 C 101.082031 -63.25 102.96875 -55.222656 102.96875 -46.359375 L 102.96875 0 L 86.25 0 L 86.25 -18.6875 L 85.890625 -18.6875 C 84.097656 -15.21875 81.671875 -11.894531 78.609375 -8.71875 C 75.554688 -5.539062 71.753906 -2.929688 67.203125 -0.890625 C 62.648438 1.140625 57.320312 2.15625 51.21875 2.15625 Z M 55.53125 -12.046875 C 61.519531 -12.046875 66.816406 -13.507812 71.421875 -16.4375 C 76.035156 -19.375 79.628906 -23.445312 82.203125 -28.65625 C 84.785156 -33.875 86.078125 -39.71875 86.078125 -46.1875 C 86.078125 -52.53125 84.847656 -58.21875 82.390625 -63.25 C 79.929688 -68.28125 76.425781 -72.265625 71.875 -75.203125 C 67.320312 -78.140625 61.992188 -79.609375 55.890625 -79.609375 C 49.421875 -79.609375 43.878906 -78.109375 39.265625 -75.109375 C 34.648438 -72.117188 31.113281 -68.078125 28.65625 -62.984375 C 26.207031 -57.890625 24.984375 -52.109375 24.984375 -45.640625 C 24.984375 -39.410156 26.179688 -33.75 28.578125 -28.65625 C 30.972656 -23.570312 34.445312 -19.53125 39 -16.53125 C 43.550781 -13.539062 49.0625 -12.046875 55.53125 -12.046875 Z M 55.53125 -12.046875 "/></g></g></g><g clip-path="url(#18c64e7461)"><path fill="#12eb63" d="M 78.074219 219.507812 L 16.625 219.507812 L 16.625 156.644531 C 16.625 122.707031 44.136719 95.195312 78.074219 95.195312 L 140.230469 95.195312 L 140.230469 157.351562 C 140.230469 191.679688 112.402344 219.507812 78.074219 219.507812 Z M 78.074219 219.507812 " fill-opacity="1" fill-rule="nonzero"/></g><g clip-path="url(#1e5404ebe3)"><path fill="#3870d0" d="M 160.808594 61.824219 L 149.265625 61.824219 L 149.265625 50.015625 C 149.265625 43.640625 154.433594 38.472656 160.808594 38.472656 L 172.484375 38.472656 L 172.484375 50.148438 C 172.484375 56.59375 167.253906 61.824219 160.808594 61.824219 Z M 160.808594 61.824219 " fill-opacity="1" fill-rule="nonzero"/></g><g clip-path="url(#43480f7924)"><path fill="#3df883" d="M 68.773438 49.9375 L 68.773438 14.601562 L 104.925781 14.601562 C 124.441406 14.601562 140.261719 30.421875 140.261719 49.9375 L 140.261719 85.679688 L 104.519531 85.679688 C 84.777344 85.679688 68.773438 69.679688 68.773438 49.9375 Z M 68.773438 49.9375 " fill-opacity="1" fill-rule="nonzero"/></g><g clip-path="url(#cbca7e26bc)"><path fill="#3df883" d="M 149.257812 95.96875 L 149.257812 70.933594 L 174.867188 70.933594 C 188.691406 70.933594 199.902344 82.140625 199.902344 95.96875 L 199.902344 121.289062 L 174.578125 121.289062 C 160.59375 121.289062 149.257812 109.953125 149.257812 95.96875 Z M 149.257812 95.96875 " fill-opacity="1" fill-rule="nonzero"/></g><g fill="#3870d0" fill-opacity="1"><g transform="translate(830.595885, 266.01909)"><g><path d="M 39.53125 0 L 11.296875 0 L 11.296875 -127.984375 L 39.53125 -127.984375 Z M 39.53125 0 "/></g></g></g><g fill="#3870d0" fill-opacity="1"><g transform="translate(884.413409, 266.01909)"><g><path d="M 80.9375 -48.9375 L 64.75 -94.484375 L 48.5625 -48.9375 Z M 128.734375 0 L 98.4375 0 L 89.21875 -25.78125 L 40.46875 -25.78125 L 31.25 0 L 0.9375 0 L 52.890625 -127.984375 L 76.796875 -127.984375 Z M 128.734375 0 "/></g></g></g></svg>