<svg xmlns="http://www.w3.org/2000/svg" xmlns:xlink="http://www.w3.org/1999/xlink" width="1366" zoomAndPan="magnify" viewBox="0 0 1024.5 576" height="768" preserveAspectRatio="xMidYMid meet" version="1.0"><defs><g/><clipPath id="53cda3e665"><path d="M 366 151.65625 L 562.742188 151.65625 L 562.742188 348.613281 L 366 348.613281 Z M 366 151.65625 " clip-rule="nonzero"/></clipPath><clipPath id="5a4407c722"><path d="M 577.863281 62.847656 L 613.785156 62.847656 L 613.785156 97.71875 L 577.863281 97.71875 Z M 577.863281 62.847656 " clip-rule="nonzero"/></clipPath><clipPath id="a3073f492e"><path d="M 450.441406 24.347656 L 561.726562 24.347656 L 561.726562 136.617188 L 450.441406 136.617188 Z M 450.441406 24.347656 " clip-rule="nonzero"/></clipPath><clipPath id="49f2ef0330"><path d="M 576.972656 113 L 657.171875 113 L 657.171875 193 L 576.972656 193 Z M 576.972656 113 " clip-rule="nonzero"/></clipPath></defs><g clip-path="url(#53cda3e665)"><path fill="#12eb63" d="M 464.195312 348.613281 L 366.835938 348.613281 L 366.835938 249.015625 C 366.835938 195.246094 410.425781 151.65625 464.195312 151.65625 L 562.671875 151.65625 L 562.671875 250.132812 C 562.671875 304.523438 518.582031 348.613281 464.195312 348.613281 Z M 464.195312 348.613281 " fill-opacity="1" fill-rule="nonzero"/></g><g clip-path="url(#5a4407c722)"><path fill="#ffffff" d="M 595.261719 98.773438 L 576.984375 98.773438 L 576.984375 80.074219 C 576.984375 69.976562 585.167969 61.792969 595.261719 61.792969 L 613.75 61.792969 L 613.75 80.28125 C 613.75 90.492188 605.472656 98.773438 595.261719 98.773438 Z M 595.261719 98.773438 " fill-opacity="1" fill-rule="nonzero"/></g><g clip-path="url(#a3073f492e)"><path fill="#3df883" d="M 449.460938 79.949219 L 449.460938 23.96875 L 506.726562 23.96875 C 537.644531 23.96875 562.707031 49.03125 562.707031 79.949219 L 562.707031 136.574219 L 506.085938 136.574219 C 474.8125 136.574219 449.460938 111.222656 449.460938 79.949219 Z M 449.460938 79.949219 " fill-opacity="1" fill-rule="nonzero"/></g><g clip-path="url(#49f2ef0330)"><path fill="#3df883" d="M 576.972656 152.894531 L 576.972656 113.25 L 617.527344 113.25 C 639.421875 113.25 657.171875 131 657.171875 152.894531 L 657.171875 192.992188 L 617.070312 192.992188 C 594.925781 192.992188 576.972656 175.039062 576.972656 152.894531 Z M 576.972656 152.894531 " fill-opacity="1" fill-rule="nonzero"/></g><g fill="#ffffff" fill-opacity="1"><g transform="translate(123.426943, 504.558251)"><g><path d="M 57.3125 32.5 L 57.3125 -0.953125 L 72.6875 -0.953125 L 72.6875 32.5 Z M 65 2.078125 C 56.132812 2.078125 48.125 0.554688 40.96875 -2.484375 C 33.820312 -5.523438 27.710938 -9.710938 22.640625 -15.046875 C 17.578125 -20.378906 13.65625 -26.566406 10.875 -33.609375 C 8.101562 -40.660156 6.71875 -48.1875 6.71875 -56.1875 C 6.71875 -64.09375 8.101562 -71.566406 10.875 -78.609375 C 13.65625 -85.648438 17.578125 -91.835938 22.640625 -97.171875 C 27.710938 -102.515625 33.820312 -106.675781 40.96875 -109.65625 C 48.125 -112.644531 56.132812 -114.140625 65 -114.140625 C 73.851562 -114.140625 81.851562 -112.644531 89 -109.65625 C 96.15625 -106.675781 102.269531 -102.515625 107.34375 -97.171875 C 112.414062 -91.835938 116.335938 -85.648438 119.109375 -78.609375 C 121.878906 -71.566406 123.265625 -64.039062 123.265625 -56.03125 C 123.265625 -48.132812 121.878906 -40.660156 119.109375 -33.609375 C 116.335938 -26.566406 112.414062 -20.378906 107.34375 -15.046875 C 102.269531 -9.710938 96.15625 -5.523438 89 -2.484375 C 81.851562 0.554688 73.851562 2.078125 65 2.078125 Z M 65 -11.53125 C 71.082031 -11.53125 76.738281 -12.648438 81.96875 -14.890625 C 87.195312 -17.128906 91.757812 -20.273438 95.65625 -24.328125 C 99.550781 -28.390625 102.566406 -33.113281 104.703125 -38.5 C 106.835938 -43.894531 107.90625 -49.789062 107.90625 -56.1875 C 107.90625 -62.488281 106.835938 -68.359375 104.703125 -73.796875 C 102.566406 -79.242188 99.578125 -83.96875 95.734375 -87.96875 C 91.890625 -91.96875 87.328125 -95.0625 82.046875 -97.25 C 76.765625 -99.4375 71.082031 -100.53125 65 -100.53125 C 58.8125 -100.53125 53.101562 -99.4375 47.875 -97.25 C 42.644531 -95.0625 38.109375 -91.96875 34.265625 -87.96875 C 30.421875 -83.96875 27.429688 -79.242188 25.296875 -73.796875 C 23.160156 -68.359375 22.09375 -62.4375 22.09375 -56.03125 C 22.09375 -49.738281 23.160156 -43.894531 25.296875 -38.5 C 27.429688 -33.113281 30.421875 -28.390625 34.265625 -24.328125 C 38.109375 -20.273438 42.644531 -17.128906 47.875 -14.890625 C 53.101562 -12.648438 58.8125 -11.53125 65 -11.53125 Z M 65 -11.53125 "/></g></g></g><g fill="#ffffff" fill-opacity="1"><g transform="translate(255.947636, 504.558251)"><g><path d="M 45.625 1.921875 C 37.726562 1.921875 30.894531 0.0234375 25.125 -3.765625 C 19.363281 -7.554688 14.9375 -12.707031 11.84375 -19.21875 C 8.75 -25.726562 7.203125 -32.929688 7.203125 -40.828125 C 7.203125 -48.828125 8.910156 -56.054688 12.328125 -62.515625 C 15.742188 -68.972656 20.648438 -74.09375 27.046875 -77.875 C 33.453125 -81.664062 41.140625 -83.5625 50.109375 -83.5625 C 58.753906 -83.5625 66.171875 -81.691406 72.359375 -77.953125 C 78.546875 -74.222656 83.320312 -69.15625 86.6875 -62.75 C 90.050781 -56.351562 91.734375 -49.203125 91.734375 -41.296875 L 91.734375 0 L 76.84375 0 L 76.84375 -16.65625 L 76.53125 -16.65625 C 74.925781 -13.550781 72.757812 -10.582031 70.03125 -7.75 C 67.3125 -4.925781 63.925781 -2.609375 59.875 -0.796875 C 55.820312 1.015625 51.070312 1.921875 45.625 1.921875 Z M 49.46875 -10.71875 C 54.800781 -10.71875 59.519531 -12.023438 63.625 -14.640625 C 67.738281 -17.265625 70.941406 -20.894531 73.234375 -25.53125 C 75.535156 -30.175781 76.6875 -35.378906 76.6875 -41.140625 C 76.6875 -46.796875 75.59375 -51.863281 73.40625 -56.34375 C 71.21875 -60.832031 68.09375 -64.382812 64.03125 -67 C 59.976562 -69.613281 55.234375 -70.921875 49.796875 -70.921875 C 44.023438 -70.921875 39.082031 -69.585938 34.96875 -66.921875 C 30.863281 -64.253906 27.71875 -60.648438 25.53125 -56.109375 C 23.34375 -51.578125 22.25 -46.425781 22.25 -40.65625 C 22.25 -35.113281 23.316406 -30.070312 25.453125 -25.53125 C 27.585938 -21 30.679688 -17.394531 34.734375 -14.71875 C 38.796875 -12.050781 43.707031 -10.71875 49.46875 -10.71875 Z M 49.46875 -10.71875 "/></g></g></g><g fill="#ffffff" fill-opacity="1"><g transform="translate(361.900335, 504.558251)"><g><path d="M 42.578125 32.5 L 42.578125 1.28125 C 36.609375 0.425781 31.300781 -1.570312 26.65625 -4.71875 C 22.007812 -7.875 18.351562 -11.984375 15.6875 -17.046875 C 13.019531 -22.117188 11.6875 -27.910156 11.6875 -34.421875 L 11.6875 -81.640625 L 26.578125 -81.640625 L 26.578125 -34.578125 C 26.578125 -29.671875 27.644531 -25.425781 29.78125 -21.84375 C 31.914062 -18.269531 34.769531 -15.519531 38.34375 -13.59375 C 41.914062 -11.675781 45.734375 -10.71875 49.796875 -10.71875 C 53.953125 -10.71875 57.816406 -11.675781 61.390625 -13.59375 C 64.972656 -15.519531 67.859375 -18.269531 70.046875 -21.84375 C 72.234375 -25.425781 73.328125 -29.671875 73.328125 -34.578125 L 73.328125 -81.640625 L 88.046875 -81.640625 L 88.046875 -34.421875 C 88.046875 -27.910156 86.738281 -22.144531 84.125 -17.125 C 81.507812 -12.113281 77.878906 -8.03125 73.234375 -4.875 C 68.597656 -1.726562 63.289062 0.320312 57.3125 1.28125 L 57.3125 32.5 Z M 42.578125 32.5 "/></g></g></g><g fill="#ffffff" fill-opacity="1"><g transform="translate(464.171934, 504.558251)"><g><path d="M 11.6875 0 L 11.6875 -49.15625 C 11.6875 -55.445312 13.125 -61.207031 16 -66.4375 C 18.882812 -71.664062 23.046875 -75.828125 28.484375 -78.921875 C 33.929688 -82.015625 40.5 -83.5625 48.1875 -83.5625 C 51.925781 -83.5625 55.660156 -83.054688 59.390625 -82.046875 C 63.128906 -81.035156 66.597656 -79.328125 69.796875 -76.921875 C 73.003906 -74.523438 75.566406 -71.296875 77.484375 -67.234375 L 77.640625 -67.234375 C 79.773438 -71.296875 82.441406 -74.523438 85.640625 -76.921875 C 88.847656 -79.328125 92.316406 -81.035156 96.046875 -82.046875 C 99.785156 -83.054688 103.578125 -83.5625 107.421875 -83.5625 C 115.003906 -83.5625 121.515625 -82.015625 126.953125 -78.921875 C 132.398438 -75.828125 136.5625 -71.664062 139.4375 -66.4375 C 142.320312 -61.207031 143.765625 -55.445312 143.765625 -49.15625 L 143.765625 0 L 129.03125 0 L 129.03125 -49.15625 C 129.03125 -53.207031 128.066406 -56.882812 126.140625 -60.1875 C 124.222656 -63.5 121.632812 -66.113281 118.375 -68.03125 C 115.125 -69.957031 111.421875 -70.921875 107.265625 -70.921875 C 103.203125 -70.921875 99.460938 -69.929688 96.046875 -67.953125 C 92.640625 -65.984375 89.945312 -63.367188 87.96875 -60.109375 C 86 -56.859375 85.015625 -53.207031 85.015625 -49.15625 L 85.015625 0 L 70.28125 0 L 70.28125 -49.15625 C 70.28125 -53.207031 69.289062 -56.859375 67.3125 -60.109375 C 65.34375 -63.367188 62.675781 -65.984375 59.3125 -67.953125 C 55.945312 -69.929688 52.1875 -70.921875 48.03125 -70.921875 C 43.96875 -70.921875 40.304688 -69.957031 37.046875 -68.03125 C 33.796875 -66.113281 31.210938 -63.5 29.296875 -60.1875 C 27.378906 -56.882812 26.421875 -53.207031 26.421875 -49.15625 L 26.421875 0 Z M 11.6875 0 "/></g></g></g><g fill="#ffffff" fill-opacity="1"><g transform="translate(622.140291, 504.558251)"><g><path d="M 45.625 1.921875 C 37.726562 1.921875 30.894531 0.0234375 25.125 -3.765625 C 19.363281 -7.554688 14.9375 -12.707031 11.84375 -19.21875 C 8.75 -25.726562 7.203125 -32.929688 7.203125 -40.828125 C 7.203125 -48.828125 8.910156 -56.054688 12.328125 -62.515625 C 15.742188 -68.972656 20.648438 -74.09375 27.046875 -77.875 C 33.453125 -81.664062 41.140625 -83.5625 50.109375 -83.5625 C 58.753906 -83.5625 66.171875 -81.691406 72.359375 -77.953125 C 78.546875 -74.222656 83.320312 -69.15625 86.6875 -62.75 C 90.050781 -56.351562 91.734375 -49.203125 91.734375 -41.296875 L 91.734375 0 L 76.84375 0 L 76.84375 -16.65625 L 76.53125 -16.65625 C 74.925781 -13.550781 72.757812 -10.582031 70.03125 -7.75 C 67.3125 -4.925781 63.925781 -2.609375 59.875 -0.796875 C 55.820312 1.015625 51.070312 1.921875 45.625 1.921875 Z M 49.46875 -10.71875 C 54.800781 -10.71875 59.519531 -12.023438 63.625 -14.640625 C 67.738281 -17.265625 70.941406 -20.894531 73.234375 -25.53125 C 75.535156 -30.175781 76.6875 -35.378906 76.6875 -41.140625 C 76.6875 -46.796875 75.59375 -51.863281 73.40625 -56.34375 C 71.21875 -60.832031 68.09375 -64.382812 64.03125 -67 C 59.976562 -69.613281 55.234375 -70.921875 49.796875 -70.921875 C 44.023438 -70.921875 39.082031 -69.585938 34.96875 -66.921875 C 30.863281 -64.253906 27.71875 -60.648438 25.53125 -56.109375 C 23.34375 -51.578125 22.25 -46.425781 22.25 -40.65625 C 22.25 -35.113281 23.316406 -30.070312 25.453125 -25.53125 C 27.585938 -21 30.679688 -17.394531 34.734375 -14.71875 C 38.796875 -12.050781 43.707031 -10.71875 49.46875 -10.71875 Z M 49.46875 -10.71875 "/></g></g></g><g fill="#ffffff" fill-opacity="1"><g transform="translate(730.022555, 508.057602)"><g><path d="M 35.21875 0 L 10.0625 0 L 10.0625 -114.03125 L 35.21875 -114.03125 Z M 35.21875 0 "/></g></g></g><g fill="#ffffff" fill-opacity="1"><g transform="translate(777.967886, 508.057602)"><g><path d="M 72.109375 -43.59375 L 57.6875 -84.171875 L 43.265625 -43.59375 Z M 114.703125 0 L 87.703125 0 L 79.484375 -22.96875 L 36.046875 -22.96875 L 27.84375 0 L 0.84375 0 L 47.125 -114.03125 L 68.421875 -114.03125 Z M 114.703125 0 "/></g></g></g></svg>