<svg xmlns="http://www.w3.org/2000/svg" xmlns:xlink="http://www.w3.org/1999/xlink" width="500" zoomAndPan="magnify" viewBox="0 0 375 374.999991" height="500" preserveAspectRatio="xMidYMid meet" version="1.0"><defs><clipPath id="64dbda5fdf"><path d="M 29 149.796875 L 242.753906 149.796875 L 242.753906 364.261719 L 29 364.261719 Z M 29 149.796875 " clip-rule="nonzero"/></clipPath><clipPath id="5d2d4af3ec"><path d="M 258 51.9375 L 298.359375 51.9375 L 298.359375 92.238281 L 258 92.238281 Z M 258 51.9375 " clip-rule="nonzero"/></clipPath><clipPath id="3dd595359d"><path d="M 119.402344 10 L 242.746094 10 L 242.746094 133.460938 L 119.402344 133.460938 Z M 119.402344 10 " clip-rule="nonzero"/></clipPath><clipPath id="1e3095332d"><path d="M 258.246094 107 L 345.632812 107 L 345.632812 194.875 L 258.246094 194.875 Z M 258.246094 107 " clip-rule="nonzero"/></clipPath></defs><g clip-path="url(#64dbda5fdf)"><path fill="#12eb63" d="M 135.445312 364.261719 L 29.429688 364.261719 L 29.429688 255.8125 C 29.429688 197.261719 76.894531 149.796875 135.445312 149.796875 L 242.679688 149.796875 L 242.679688 257.03125 C 242.679688 316.253906 194.667969 364.261719 135.445312 364.261719 Z M 135.445312 364.261719 " fill-opacity="1" fill-rule="nonzero"/></g><g clip-path="url(#5d2d4af3ec)"><path fill="#3870d0" d="M 278.179688 92.238281 L 258.261719 92.238281 L 258.261719 71.859375 C 258.261719 60.859375 267.179688 51.9375 278.179688 51.9375 L 298.332031 51.9375 L 298.332031 72.089844 C 298.332031 83.214844 289.308594 92.238281 278.179688 92.238281 Z M 278.179688 92.238281 " fill-opacity="1" fill-rule="nonzero"/></g><g clip-path="url(#3dd595359d)"><path fill="#3df883" d="M 119.402344 71.738281 L 119.402344 10.765625 L 181.773438 10.765625 C 215.449219 10.765625 242.746094 38.0625 242.746094 71.738281 L 242.746094 133.410156 L 181.074219 133.410156 C 147.011719 133.410156 119.402344 105.796875 119.402344 71.738281 Z M 119.402344 71.738281 " fill-opacity="1" fill-rule="nonzero"/></g><g clip-path="url(#1e3095332d)"><path fill="#3df883" d="M 258.246094 151.148438 L 258.246094 107.953125 L 302.4375 107.953125 C 326.292969 107.953125 345.632812 127.292969 345.632812 151.148438 L 345.632812 194.84375 L 301.941406 194.84375 C 277.808594 194.84375 258.246094 175.28125 258.246094 151.148438 Z M 258.246094 151.148438 " fill-opacity="1" fill-rule="nonzero"/></g></svg>